<?xml version="1.0" encoding="UTF-8"?>
<svg xmlns="http://www.w3.org/2000/svg" width="800" height="600" viewBox="0 0 800 600" role="img" aria-labelledby="heroPlaceholderTitle">
  <title id="heroPlaceholderTitle">Platzhalterbild für persönlichen IT-Service</title>
  <defs>
    <linearGradient id="bg" x1="0%" y1="0%" x2="100%" y2="100%">
      <stop offset="0%" stop-color="#EEF2FF"/>
      <stop offset="100%" stop-color="#DBEAFE"/>
    </linearGradient>
  </defs>
  <rect x="0" y="0" width="800" height="600" fill="url(#bg)"/>
  <g transform="translate(120 140)">
    <rect x="0" y="180" width="560" height="180" rx="24" fill="#1D4ED8" opacity="0.08"/>
    <rect x="80" y="40" width="180" height="220" rx="32" fill="#FFFFFF" stroke="#1D4ED8" stroke-width="4"/>
    <circle cx="170" cy="110" r="40" fill="#BFDBFE"/>
    <rect x="110" y="160" width="120" height="60" rx="16" fill="#1D4ED8"/>
    <path d="M210 190H170" stroke="#FFFFFF" stroke-width="6" stroke-linecap="round"/>
    <rect x="320" y="0" width="200" height="280" rx="36" fill="#FFFFFF" stroke="#1D4ED8" stroke-width="4"/>
    <circle cx="420" cy="80" r="50" fill="#F97316" opacity="0.35"/>
    <circle cx="420" cy="80" r="32" fill="#F97316"/>
    <rect x="360" y="140" width="120" height="70" rx="20" fill="#1D4ED8"/>
    <path d="M385 170H455" stroke="#FFFFFF" stroke-width="8" stroke-linecap="round"/>
    <rect x="300" y="240" width="240" height="60" rx="18" fill="#111827" opacity="0.05"/>
    <rect x="160" y="268" width="240" height="44" rx="14" fill="#FFFFFF" stroke="#1D4ED8" stroke-width="3" opacity="0.7"/>
    <path d="M220 286H340" stroke="#1D4ED8" stroke-width="6" stroke-linecap="round" opacity="0.6"/>
  </g>
</svg>
