<svg id="svg" xmlns="http://www.w3.org/2000/svg" xmlns:xlink="http://www.w3.org/1999/xlink" width="400" height="208.88208269525268" viewBox="0, 0, 400,208.88208269525268"><g id="svgg"><path id="path0" d="M132.196 1.462 C 126.743 2.943,122.893 6.881,121.348 12.557 C 120.897 14.213,120.680 28.754,120.677 57.409 L 120.674 99.811 112.557 99.982 L 104.441 100.153 104.452 106.585 C 104.470 117.317,107.572 122.958,115.640 126.930 L 119.729 128.943 200.600 128.943 L 281.470 128.943 284.926 127.246 C 292.854 123.353,296.136 117.494,296.157 107.198 L 296.172 100.153 288.377 99.982 L 280.583 99.810 280.414 56.184 L 280.245 12.557 278.621 9.495 C 276.604 5.690,274.951 4.126,271.049 2.327 L 267.994 0.919 201.531 0.800 C 149.310 0.707,134.453 0.849,132.196 1.462 M266.598 11.053 C 271.303 12.360,271.127 9.634,270.343 69.066 L 269.938 99.847 200.607 99.847 L 131.277 99.847 130.836 57.726 C 130.348 11.144,130.291 11.881,134.456 10.857 C 137.022 10.226,264.301 10.415,266.598 11.053 M172.741 55.743 L 172.741 80.245 178.254 80.245 L 183.767 80.245 183.767 55.743 L 183.767 31.240 178.254 31.240 L 172.741 31.240 172.741 55.743 M192.343 36.447 L 192.343 41.654 199.387 41.654 L 206.432 41.654 206.432 60.949 L 206.432 80.245 212.251 80.245 L 218.070 80.245 218.070 60.949 L 218.070 41.654 225.115 41.654 L 232.159 41.654 232.159 36.447 L 232.159 31.240 212.251 31.240 L 192.343 31.240 192.343 36.447 M285.211 112.229 C 284.686 114.856,282.191 117.349,278.763 118.672 C 276.134 119.687,271.178 119.755,200.306 119.755 L 124.655 119.755 121.425 118.295 C 117.751 116.635,115.161 113.926,115.161 111.745 L 115.161 110.260 200.383 110.260 L 285.605 110.260 285.211 112.229 M341.803 153.099 C 335.736 154.945,332.919 158.422,331.724 165.544 L 331.338 167.841 335.600 167.841 L 339.862 167.841 340.276 165.387 C 341.248 159.638,350.704 159.148,352.218 164.768 C 353.491 169.495,349.548 175.490,339.571 183.999 C 332.681 189.876,332.619 189.967,332.619 194.231 L 332.619 197.243 347.014 197.243 L 361.409 197.243 361.409 193.568 L 361.409 189.893 357.274 189.888 C 355.000 189.886,351.313 189.712,349.081 189.501 L 345.022 189.117 351.262 183.107 C 358.773 175.873,360.849 172.456,361.265 166.644 C 361.978 156.676,352.265 149.917,341.803 153.099 M385.221 152.946 C 382.996 153.306,381.933 154.650,376.101 164.472 C 373.300 169.188,369.915 174.627,368.578 176.559 C 366.455 179.626,366.108 180.613,365.840 184.369 L 365.532 188.668 376.028 188.668 L 386.524 188.668 386.524 192.956 L 386.524 197.243 390.812 197.243 L 395.100 197.243 395.100 192.956 L 395.100 188.668 397.550 188.668 L 400.000 188.668 400.000 184.992 L 400.000 181.317 397.550 181.317 L 395.100 181.317 395.100 167.228 L 395.100 153.139 392.190 153.131 C 390.590 153.126,388.729 153.024,388.055 152.904 C 387.381 152.784,386.106 152.803,385.221 152.946 M0.000 175.191 L 0.000 197.243 4.288 197.243 L 8.576 197.243 8.576 175.191 L 8.576 153.139 4.288 153.139 L 0.000 153.139 0.000 175.191 M14.701 157.121 L 14.701 161.103 21.440 161.103 L 28.178 161.103 28.178 179.173 L 28.178 197.243 32.466 197.243 L 36.753 197.243 36.753 179.173 L 36.753 161.103 43.185 161.103 L 49.617 161.103 49.617 157.121 L 49.617 153.139 32.159 153.139 L 14.701 153.139 14.701 157.121 M72.894 175.191 L 72.894 197.243 86.677 197.243 L 100.459 197.243 100.459 193.568 L 100.459 189.893 90.658 189.893 L 80.858 189.893 80.858 184.686 L 80.858 179.479 89.740 179.479 L 98.622 179.479 98.622 175.804 L 98.622 172.129 89.740 172.129 L 80.858 172.129 80.858 166.616 L 80.858 161.103 90.658 161.103 L 100.459 161.103 100.459 157.121 L 100.459 153.139 86.677 153.139 L 72.894 153.139 72.894 175.191 M240.123 160.490 L 240.123 165.391 237.672 165.391 L 235.222 165.391 235.222 168.760 L 235.222 172.129 237.979 172.129 L 240.735 172.129 240.737 181.776 C 240.740 194.481,242.840 197.818,250.842 197.834 C 255.577 197.844,256.049 197.485,256.049 193.881 L 256.049 190.661 252.973 190.366 C 248.993 189.983,249.305 190.715,248.880 180.776 L 248.510 172.129 252.280 172.129 L 256.049 172.129 256.049 168.760 L 256.049 165.391 252.374 165.391 L 248.698 165.391 248.698 160.490 L 248.698 155.590 244.410 155.590 L 240.123 155.590 240.123 160.490 M386.524 171.739 L 386.524 181.150 383.682 181.540 C 379.642 182.094,374.273 182.022,374.273 181.415 C 374.273 181.132,375.605 178.720,377.234 176.055 C 378.863 173.390,381.413 169.221,382.900 166.790 C 386.506 160.898,386.524 160.922,386.524 171.739 M105.831 165.185 C 103.865 165.519,103.783 165.340,109.733 173.706 C 115.399 181.671,115.347 180.988,110.729 186.931 C 108.546 189.739,106.028 193.208,105.134 194.640 L 103.507 197.243 108.002 197.243 C 113.093 197.243,113.170 197.191,117.203 190.942 C 119.868 186.813,119.883 186.817,123.158 192.329 C 126.061 197.215,127.355 197.901,132.580 197.327 L 136.127 196.937 132.082 191.424 C 129.858 188.392,127.329 184.757,126.464 183.346 L 124.890 180.781 129.826 173.599 C 135.775 164.946,135.734 165.391,130.582 165.391 C 125.847 165.391,125.690 165.502,121.685 171.706 L 119.388 175.265 117.591 171.669 C 114.613 165.711,111.814 164.167,105.831 165.185 M151.105 166.324 C 148.801 167.919,148.759 167.924,148.430 166.667 C 148.135 165.541,147.634 165.391,144.186 165.391 L 140.276 165.391 140.276 187.136 L 140.276 208.882 144.564 208.882 L 148.851 208.882 148.851 204.986 C 148.851 202.843,149.023 199.835,149.234 198.302 L 149.616 195.514 152.347 196.685 C 163.340 201.397,172.790 193.086,171.998 179.402 C 171.339 168.019,159.427 160.562,151.105 166.324 M185.911 165.517 C 173.260 169.939,173.052 191.973,185.619 196.477 C 193.978 199.472,205.819 195.638,205.819 189.936 C 205.819 188.043,199.419 187.133,198.609 188.911 C 196.471 193.603,187.077 192.030,185.033 186.637 C 183.680 183.065,183.412 183.155,195.406 183.155 L 206.432 183.155 206.432 179.060 C 206.432 168.447,196.424 161.842,185.911 165.517 M224.450 165.649 C 223.411 166.101,221.993 167.193,221.300 168.074 C 219.967 169.769,219.296 169.264,219.296 166.566 C 219.296 165.538,218.835 165.391,215.620 165.391 L 211.945 165.391 211.945 181.317 L 211.945 197.243 215.844 197.243 L 219.744 197.243 220.032 187.902 C 220.419 175.366,221.932 172.741,228.771 172.741 L 230.934 172.741 230.934 168.760 L 230.934 164.778 228.637 164.802 C 227.374 164.815,225.490 165.196,224.450 165.649 M268.601 165.920 C 259.084 170.244,257.093 188.083,265.418 194.433 C 272.775 200.044,285.207 198.609,288.649 191.751 C 289.905 189.249,290.019 189.405,286.200 188.397 C 283.417 187.663,283.061 187.691,282.189 188.709 C 278.183 193.388,270.659 191.068,268.643 184.533 L 268.218 183.155 279.285 183.155 L 290.352 183.155 290.352 179.153 C 290.352 167.977,279.118 161.142,268.601 165.920 M308.424 165.743 C 307.414 166.270,306.118 167.126,305.543 167.646 C 304.588 168.510,304.465 168.455,304.097 166.991 C 303.721 165.492,303.467 165.391,300.087 165.391 L 296.478 165.391 296.478 181.317 L 296.478 197.243 300.459 197.243 L 304.441 197.243 304.486 189.433 C 304.568 175.023,305.477 172.762,311.179 172.774 C 316.899 172.786,317.917 174.999,317.917 187.421 L 317.917 197.243 321.899 197.243 L 325.881 197.243 325.881 185.585 C 325.881 171.349,324.960 168.411,319.632 165.639 C 317.394 164.474,310.739 164.536,308.424 165.743 M195.123 171.180 C 197.225 172.058,198.469 174.020,198.469 176.456 C 198.469 177.557,197.984 177.642,191.654 177.642 L 184.839 177.642 185.226 175.709 C 186.112 171.279,190.526 169.259,195.123 171.180 M280.704 172.624 C 281.770 173.618,282.389 174.828,282.389 175.919 L 282.389 177.642 275.278 177.642 L 268.167 177.642 268.582 175.957 C 269.933 170.460,276.461 168.665,280.704 172.624 M160.298 172.711 C 166.843 176.702,164.864 189.555,157.513 190.797 C 152.628 191.622,149.345 188.987,148.283 183.389 C 146.641 174.730,153.546 168.594,160.298 172.711 M47.779 180.092 L 47.779 183.767 56.355 183.767 L 64.931 183.767 64.931 180.092 L 64.931 176.417 56.355 176.417 L 47.779 176.417 47.779 180.092 " stroke="none" fill="#000000" fill-rule="evenodd"></path></g></svg>