<svg id="svg" xmlns="http://www.w3.org/2000/svg" xmlns:xlink="http://www.w3.org/1999/xlink" width="400" height="268.3544303797469" viewBox="0, 0, 400,268.3544303797469"><g id="svgg"><path id="path0" d="M59.253 3.021 C 47.985 6.081,40.029 14.219,36.835 25.949 C 35.904 29.371,35.455 59.418,35.450 118.634 L 35.443 206.256 18.671 206.609 L 1.899 206.962 1.921 220.253 C 1.958 242.431,8.368 254.088,25.040 262.295 L 33.491 266.456 200.606 266.456 L 367.722 266.456 374.863 262.949 C 391.246 254.903,398.028 242.796,398.071 221.519 L 398.101 206.962 381.995 206.608 L 365.888 206.254 365.539 116.102 L 365.190 25.949 361.834 19.620 C 357.666 11.758,354.250 8.525,346.187 4.809 L 339.873 1.899 202.532 1.654 C 94.617 1.461,63.918 1.754,59.253 3.021 M336.988 22.841 C 346.711 25.541,346.347 19.907,344.729 142.722 L 343.890 206.329 200.622 206.329 L 57.353 206.329 56.442 119.287 C 55.434 23.028,55.317 24.551,63.924 22.435 C 69.226 21.132,332.242 21.523,336.988 22.841 M143.038 115.190 L 143.038 165.823 154.430 165.823 L 165.823 165.823 165.823 115.190 L 165.823 64.557 154.430 64.557 L 143.038 64.557 143.038 115.190 M183.544 75.316 L 183.544 86.076 198.101 86.076 L 212.658 86.076 212.658 125.949 L 212.658 165.823 224.684 165.823 L 236.709 165.823 236.709 125.949 L 236.709 86.076 251.266 86.076 L 265.823 86.076 265.823 75.316 L 265.823 64.557 224.684 64.557 L 183.544 64.557 183.544 75.316 M375.452 231.916 C 374.366 237.345,369.211 242.496,362.126 245.231 C 356.695 247.327,346.453 247.468,200.000 247.468 L 43.671 247.468 36.996 244.452 C 29.404 241.021,24.051 235.423,24.051 230.916 L 24.051 227.848 200.158 227.848 L 376.266 227.848 375.452 231.916 " stroke="none" fill="#000000" fill-rule="evenodd"></path></g></svg>